<svg width="44" height="49" viewBox="0 0 44 49" fill="none" xmlns="http://www.w3.org/2000/svg">
<path d="M21.2492 5.125L2.45752 15.375L21.2492 25.625L36.6242 17.2371V29.0417H40.0409V15.375M9.29085 22.5158V29.3492L21.2492 35.875L33.2075 29.3492V22.5158L21.2492 29.0417L9.29085 22.5158Z" fill="#F5F5F5"/>
<path d="M5.3906 39.2727H7.23577V44.9403C7.23577 45.5767 7.08378 46.1335 6.77981 46.6108C6.47867 47.0881 6.0568 47.4602 5.51418 47.7273C4.97157 47.9915 4.33947 48.1236 3.61788 48.1236C2.89344 48.1236 2.25992 47.9915 1.71731 47.7273C1.17469 47.4602 0.752819 47.0881 0.451682 46.6108C0.150546 46.1335 -2.22027e-05 45.5767 -2.22027e-05 44.9403V39.2727H1.84515V44.7827C1.84515 45.1151 1.91759 45.4105 2.06248 45.669C2.21021 45.9276 2.41759 46.1307 2.68464 46.2784C2.95168 46.4261 3.26276 46.5 3.61788 46.5C3.97583 46.5 4.28691 46.4261 4.55111 46.2784C4.81816 46.1307 5.02413 45.9276 5.16901 45.669C5.31674 45.4105 5.3906 45.1151 5.3906 44.7827V39.2727ZM10.5351 44.2159V48H8.71979V41.4545H10.4499V42.6094H10.5266C10.6715 42.2287 10.9144 41.9276 11.2553 41.706C11.5962 41.4815 12.0096 41.3693 12.4954 41.3693C12.9499 41.3693 13.3462 41.4688 13.6843 41.6676C14.0224 41.8665 14.2851 42.1506 14.4726 42.5199C14.6601 42.8864 14.7539 43.3239 14.7539 43.8324V48H12.9385V44.1562C12.9414 43.7557 12.8391 43.4432 12.6317 43.2188C12.4243 42.9915 12.1388 42.8778 11.7752 42.8778C11.5309 42.8778 11.315 42.9304 11.1275 43.0355C10.9428 43.1406 10.7979 43.294 10.6928 43.4957C10.5905 43.6946 10.538 43.9347 10.5351 44.2159ZM16.1846 48V41.4545H18V48H16.1846ZM17.0966 40.6108C16.8267 40.6108 16.5951 40.5213 16.402 40.3423C16.2116 40.1605 16.1165 39.9432 16.1165 39.6903C16.1165 39.4403 16.2116 39.2259 16.402 39.0469C16.5951 38.8651 16.8267 38.7741 17.0966 38.7741C17.3665 38.7741 17.5966 38.8651 17.7869 39.0469C17.9801 39.2259 18.0767 39.4403 18.0767 39.6903C18.0767 39.9432 17.9801 40.1605 17.7869 40.3423C17.5966 40.5213 17.3665 40.6108 17.0966 40.6108ZM19.4883 48V39.2727H21.3334V46.4787H25.0749V48H19.4883ZM26.2628 48V41.4545H28.0781V48H26.2628ZM27.1747 40.6108C26.9048 40.6108 26.6733 40.5213 26.4801 40.3423C26.2898 40.1605 26.1946 39.9432 26.1946 39.6903C26.1946 39.4403 26.2898 39.2259 26.4801 39.0469C26.6733 38.8651 26.9048 38.7741 27.1747 38.7741C27.4446 38.7741 27.6747 38.8651 27.865 39.0469C28.0582 39.2259 28.1548 39.4403 28.1548 39.6903C28.1548 39.9432 28.0582 40.1605 27.865 40.3423C27.6747 40.5213 27.4446 40.6108 27.1747 40.6108ZM31.3476 44.2159V48H29.5323V41.4545H31.2624V42.6094H31.3391C31.484 42.2287 31.7269 41.9276 32.0678 41.706C32.4087 41.4815 32.8221 41.3693 33.3079 41.3693C33.7624 41.3693 34.1587 41.4688 34.4968 41.6676C34.8349 41.8665 35.0976 42.1506 35.2851 42.5199C35.4726 42.8864 35.5664 43.3239 35.5664 43.8324V48H33.751V44.1562C33.7539 43.7557 33.6516 43.4432 33.4442 43.2188C33.2368 42.9915 32.9513 42.8778 32.5877 42.8778C32.3434 42.8778 32.1275 42.9304 31.94 43.0355C31.7553 43.1406 31.6104 43.294 31.5053 43.4957C31.403 43.6946 31.3505 43.9347 31.3476 44.2159ZM38.642 46.1165L38.6463 43.9389H38.9105L41.0071 41.4545H43.0909L40.2741 44.7443H39.8437L38.642 46.1165ZM36.9971 48V39.2727H38.8125V48H36.9971ZM41.088 48L39.1619 45.1491L40.3721 43.8665L43.2145 48H41.088Z" fill="#F5F5F5"/>
</svg>
