<svg width="21" height="22" viewBox="0 0 21 22" fill="none" xmlns="http://www.w3.org/2000/svg">
<path d="M16.0033 6L19.5033 2.5ZM16.0033 1V6H21.0033M1.10334 16.1C0.949973 16.7616 0.967565 17.4513 1.15445 18.1041C1.34134 18.757 1.69138 19.3516 2.17157 19.8318C2.65177 20.312 3.24632 20.662 3.89919 20.8489C4.55207 21.0358 5.24178 21.0534 5.90334 20.9L14.9033 18.8C16.0468 18.5584 17.1009 18.0044 17.9484 17.1996C18.7959 16.3949 19.4037 15.3709 19.7042 14.2415C20.0046 13.1121 19.9861 11.9215 19.6505 10.802C19.315 9.68245 18.6755 8.67792 17.8033 7.9L14.0033 4.2C13.1845 3.38735 12.1641 2.80728 11.047 2.51934C9.92983 2.2314 8.75618 2.24598 7.64653 2.56156C6.53689 2.87715 5.53123 3.48238 4.73281 4.31511C3.93439 5.14784 3.37198 6.17806 3.10334 7.3L1.10334 16.1ZM7.50334 8.5H7.51334ZM11.5033 7.5H11.5133ZM6.50334 12.5H6.51334ZM10.5033 11.5H10.5133ZM14.5033 10.5H14.5133ZM5.50334 16.5H5.51334ZM9.50334 15.5H9.51334ZM13.5033 14.5H13.5133Z" fill="url(#paint0_linear_158_33)"/>
<path d="M16.0033 6L19.5033 2.5M16.0033 6V1M16.0033 6H21.0033M7.50334 8.5H7.51334M11.5033 7.5H11.5133M6.50334 12.5H6.51334M10.5033 11.5H10.5133M14.5033 10.5H14.5133M5.50334 16.5H5.51334M9.50334 15.5H9.51334M13.5033 14.5H13.5133M1.10334 16.1C0.949973 16.7616 0.967565 17.4513 1.15445 18.1041C1.34134 18.757 1.69138 19.3516 2.17157 19.8318C2.65177 20.312 3.24632 20.662 3.89919 20.8489C4.55207 21.0358 5.24178 21.0534 5.90334 20.9L14.9033 18.8C16.0468 18.5584 17.1009 18.0044 17.9484 17.1996C18.7959 16.3949 19.4037 15.3709 19.7042 14.2415C20.0046 13.1121 19.9861 11.9215 19.6505 10.802C19.315 9.68245 18.6755 8.67792 17.8033 7.9L14.0033 4.2C13.1845 3.38735 12.1641 2.80728 11.047 2.51934C9.92983 2.2314 8.75618 2.24598 7.64653 2.56156C6.53689 2.87715 5.53123 3.48238 4.73281 4.31511C3.93439 5.14784 3.37198 6.17806 3.10334 7.3L1.10334 16.1Z" stroke="#FF789F" stroke-width="2" stroke-linecap="round" stroke-linejoin="round"/>
<defs>
<linearGradient id="paint0_linear_158_33" x1="11.0017" y1="1" x2="11.0017" y2="21.0033" gradientUnits="userSpaceOnUse">
<stop stop-color="#FFEAEF"/>
<stop offset="0.520788" stop-color="#FFDCE4"/>
<stop offset="1" stop-color="#FEB1C7"/>
</linearGradient>
</defs>
</svg>
